<?xml version="1.0" standalone="no"?>
<!DOCTYPE svg PUBLIC "-//W3C//DTD SVG 1.1//EN"
"http://www.w3.org/Graphics/SVG/1.1/DTD/svg11.dtd">
<svg height="600" version="1.1" width="800" xmlns="http://www.w3.org/2000/svg"><g><rect fill="#f9f9f9" height="600" width="800" x="0" y="0" /><g transform="translate(40 40)"><g transform="translate(24 0)"><text fill="#333" font-family="Monaco" font-size="16" x="0" y="0">Humidity vs Temperature (Humidity %rH on y axis &amp; Temperature *c on x axis)</text></g><g transform="translate(0 20)"><g transform="translate(24 0)"><g class="axis bottom"><g class="tick"><line stroke="#eee" stroke-width="1" x1="0" x2="0" y1="0" y2="482.0" /><text dy="1em" fill="#9c9c9c" font-family="Monaco" text-anchor="middle" x="0" y="486.0">20</text></g><g class="tick"><line stroke="#eee" stroke-width="1" x1="232.0000000000000000000000000" x2="232.0000000000000000000000000" y1="0" y2="482.0" /><text dy="1em" fill="#9c9c9c" font-family="Monaco" text-anchor="middle" x="232.0000000000000000000000000" y="486.0">30</text></g><g class="tick"><line stroke="#eee" stroke-width="1" x1="464.0000000000000000000000000" x2="464.0000000000000000000000000" y1="0" y2="482.0" /><text dy="1em" fill="#9c9c9c" font-family="Monaco" text-anchor="middle" x="464.0000000000000000000000000" y="486.0">40</text></g><g class="tick"><line stroke="#eee" stroke-width="1" x1="696" x2="696" y1="0" y2="482.0" /><text dy="1em" fill="#9c9c9c" font-family="Monaco" text-anchor="middle" x="696" y="486.0">50</text></g></g><g class="axis left"><g class="tick"><line stroke="#eee" stroke-width="1" x1="-4" x2="696.0" y1="478" y2="478" /><text dy="0.32em" fill="#9c9c9c" font-family="Monaco" text-anchor="end" x="-8" y="478">20</text></g><g class="tick"><line stroke="#eee" stroke-width="1" x1="-4" x2="696.0" y1="382.4" y2="382.4" /><text dy="0.32em" fill="#9c9c9c" font-family="Monaco" text-anchor="end" x="-8" y="382.4">30</text></g><g class="tick"><line stroke="#eee" stroke-width="1" x1="-4" x2="696.0" y1="286.8" y2="286.8" /><text dy="0.32em" fill="#9c9c9c" font-family="Monaco" text-anchor="end" x="-8" y="286.8">40</text></g><g class="tick"><line stroke="#eee" stroke-width="1" x1="-4" x2="696.0" y1="191.2" y2="191.2" /><text dy="0.32em" fill="#9c9c9c" font-family="Monaco" text-anchor="end" x="-8" y="191.2">50</text></g><g class="tick"><line stroke="#eee" stroke-width="1" x1="-4" x2="696.0" y1="95.6" y2="95.6" /><text dy="0.32em" fill="#9c9c9c" font-family="Monaco" text-anchor="end" x="-8" y="95.6">60</text></g><g class="tick"><line stroke="#eee" stroke-width="1" x1="-4" x2="696.0" y1="0" y2="0" /><text dy="0.32em" fill="#9c9c9c" font-family="Monaco" text-anchor="end" x="-8" y="0">70</text></g></g><g><g class="series dots"><circle cx="510.4000000000000000000000000" cy="430.2" fill="rgb(42, 25, 150)" r="3" /><circle cx="510.4000000000000000000000000" cy="439.76" fill="rgb(42, 24, 150)" r="3" /><circle cx="510.4000000000000000000000000" cy="439.76" fill="rgb(42, 24, 150)" r="3" /><circle cx="510.4000000000000000000000000" cy="439.76" fill="rgb(42, 24, 150)" r="3" /><circle cx="510.4000000000000000000000000" cy="439.76" fill="rgb(42, 24, 150)" r="3" /><circle cx="510.4000000000000000000000000" cy="449.32" fill="rgb(42, 23, 150)" r="3" /><circle cx="510.4000000000000000000000000" cy="449.32" fill="rgb(42, 23, 150)" r="3" /><circle cx="510.4000000000000000000000000" cy="449.32" fill="rgb(42, 23, 150)" r="3" /><circle cx="510.4000000000000000000000000" cy="449.32" fill="rgb(42, 23, 150)" r="3" /><circle cx="510.4000000000000000000000000" cy="449.32" fill="rgb(42, 23, 150)" r="3" /><circle cx="510.4000000000000000000000000" cy="449.32" fill="rgb(42, 23, 150)" r="3" /><circle cx="510.4000000000000000000000000" cy="449.32" fill="rgb(42, 23, 150)" r="3" /><circle cx="510.4000000000000000000000000" cy="449.32" fill="rgb(42, 23, 150)" r="3" /><circle cx="510.4000000000000000000000000" cy="449.32" fill="rgb(42, 23, 150)" r="3" /><circle cx="510.4000000000000000000000000" cy="439.76" fill="rgb(42, 24, 150)" r="3" /><circle cx="510.4000000000000000000000000" cy="449.32" fill="rgb(42, 23, 150)" r="3" /><circle cx="510.4000000000000000000000000" cy="449.32" fill="rgb(42, 23, 150)" r="3" /><circle cx="510.4000000000000000000000000" cy="468.44" fill="rgb(42, 21, 150)" r="3" /><circle cx="510.4000000000000000000000000" cy="449.32" fill="rgb(42, 23, 150)" r="3" /><circle cx="510.4000000000000000000000000" cy="449.32" fill="rgb(42, 23, 150)" r="3" /><circle cx="510.4000000000000000000000000" cy="449.32" fill="rgb(42, 23, 150)" r="3" /><circle cx="510.4000000000000000000000000" cy="449.32" fill="rgb(42, 23, 150)" r="3" /><circle cx="510.4000000000000000000000000" cy="449.32" fill="rgb(42, 23, 150)" r="3" /><circle cx="510.4000000000000000000000000" cy="449.32" fill="rgb(42, 23, 150)" r="3" /><circle cx="510.4000000000000000000000000" cy="449.32" fill="rgb(42, 23, 150)" r="3" /><circle cx="510.4000000000000000000000000" cy="458.88" fill="rgb(42, 22, 150)" r="3" /><circle cx="510.4000000000000000000000000" cy="449.32" fill="rgb(42, 23, 150)" r="3" /><circle cx="510.4000000000000000000000000" cy="458.88" fill="rgb(42, 22, 150)" r="3" /><circle cx="510.4000000000000000000000000" cy="449.32" fill="rgb(42, 23, 150)" r="3" /><circle cx="510.4000000000000000000000000" cy="449.32" fill="rgb(42, 23, 150)" r="3" /><circle cx="510.4000000000000000000000000" cy="449.32" fill="rgb(42, 23, 150)" r="3" /><circle cx="533.6000000000000000000000000" cy="449.32" fill="rgb(43, 23, 150)" r="3" /><circle cx="533.6000000000000000000000000" cy="449.32" fill="rgb(43, 23, 150)" r="3" /><circle cx="533.6000000000000000000000000" cy="458.88" fill="rgb(43, 22, 150)" r="3" /><circle cx="533.6000000000000000000000000" cy="449.32" fill="rgb(43, 23, 150)" r="3" /><circle cx="533.6000000000000000000000000" cy="458.88" fill="rgb(43, 22, 150)" r="3" /><circle cx="533.6000000000000000000000000" cy="449.32" fill="rgb(43, 23, 150)" r="3" /><circle cx="533.6000000000000000000000000" cy="449.32" fill="rgb(43, 23, 150)" r="3" /><circle cx="208.8" cy="248.56" fill="rgb(29, 44, 150)" r="3" /><circle cx="232.0000000000000000000000000" cy="248.56" fill="rgb(30, 44, 150)" r="3" /><circle cx="232.0000000000000000000000000" cy="267.68" fill="rgb(30, 42, 150)" r="3" /><circle cx="255.2000000000000000000000000" cy="267.68" fill="rgb(31, 42, 150)" r="3" /><circle cx="278.4" cy="277.24" fill="rgb(32, 41, 150)" r="3" /><circle cx="301.6000000000000000000000000" cy="286.8" fill="rgb(33, 40, 150)" r="3" /><circle cx="301.6000000000000000000000000" cy="296.36" fill="rgb(33, 39, 150)" r="3" /><circle cx="324.8000000000000000000000000" cy="305.92" fill="rgb(34, 38, 150)" r="3" /><circle cx="324.8000000000000000000000000" cy="305.92" fill="rgb(34, 38, 150)" r="3" /><circle cx="348.0" cy="315.48" fill="rgb(35, 37, 150)" r="3" /><circle cx="348.0" cy="325.04" fill="rgb(35, 36, 150)" r="3" /><circle cx="371.2000000000000000000000000" cy="353.72" fill="rgb(36, 33, 150)" r="3" /><circle cx="371.2000000000000000000000000" cy="334.6" fill="rgb(36, 35, 150)" r="3" /><circle cx="394.4000000000000000000000000" cy="344.16" fill="rgb(37, 34, 150)" r="3" /><circle cx="394.4000000000000000000000000" cy="344.16" fill="rgb(37, 34, 150)" r="3" /><circle cx="394.4000000000000000000000000" cy="344.16" fill="rgb(37, 34, 150)" r="3" /><circle cx="394.4000000000000000000000000" cy="353.72" fill="rgb(37, 33, 150)" r="3" /><circle cx="417.6" cy="353.72" fill="rgb(38, 33, 150)" r="3" /><circle cx="417.6" cy="372.84" fill="rgb(38, 31, 150)" r="3" /><circle cx="417.6" cy="363.28" fill="rgb(38, 32, 150)" r="3" /><circle cx="440.8000000000000000000000000" cy="372.84" fill="rgb(39, 31, 150)" r="3" /><circle cx="440.8000000000000000000000000" cy="372.84" fill="rgb(39, 31, 150)" r="3" /><circle cx="440.8000000000000000000000000" cy="363.28" fill="rgb(39, 32, 150)" r="3" /><circle cx="440.8000000000000000000000000" cy="382.4" fill="rgb(39, 30, 150)" r="3" /><circle cx="440.8000000000000000000000000" cy="382.4" fill="rgb(39, 30, 150)" r="3" /><circle cx="440.8000000000000000000000000" cy="382.4" fill="rgb(39, 30, 150)" r="3" /><circle cx="464.0000000000000000000000000" cy="391.96" fill="rgb(40, 29, 150)" r="3" /><circle cx="464.0000000000000000000000000" cy="391.96" fill="rgb(40, 29, 150)" r="3" /><circle cx="464.0000000000000000000000000" cy="391.96" fill="rgb(40, 29, 150)" r="3" /><circle cx="464.0000000000000000000000000" cy="401.52" fill="rgb(40, 28, 150)" r="3" /><circle cx="464.0000000000000000000000000" cy="401.52" fill="rgb(40, 28, 150)" r="3" /><circle cx="464.0000000000000000000000000" cy="401.52" fill="rgb(40, 28, 150)" r="3" /><circle cx="464.0000000000000000000000000" cy="401.52" fill="rgb(40, 28, 150)" r="3" /><circle cx="464.0000000000000000000000000" cy="401.52" fill="rgb(40, 28, 150)" r="3" /><circle cx="487.2" cy="401.52" fill="rgb(41, 28, 150)" r="3" /><circle cx="487.2" cy="411.08" fill="rgb(41, 27, 150)" r="3" /><circle cx="487.2" cy="411.08" fill="rgb(41, 27, 150)" r="3" /><circle cx="487.2" cy="411.08" fill="rgb(41, 27, 150)" r="3" /><circle cx="487.2" cy="401.52" fill="rgb(41, 28, 150)" r="3" /><circle cx="487.2" cy="411.08" fill="rgb(41, 27, 150)" r="3" /><circle cx="487.2" cy="411.08" fill="rgb(41, 27, 150)" r="3" /><circle cx="487.2" cy="411.08" fill="rgb(41, 27, 150)" r="3" /><circle cx="487.2" cy="411.08" fill="rgb(41, 27, 150)" r="3" /><circle cx="487.2" cy="420.64" fill="rgb(41, 26, 150)" r="3" /><circle cx="487.2" cy="411.08" fill="rgb(41, 27, 150)" r="3" /><circle cx="487.2" cy="420.64" fill="rgb(41, 26, 150)" r="3" /><circle cx="487.2" cy="411.08" fill="rgb(41, 27, 150)" r="3" /><circle cx="487.2" cy="420.64" fill="rgb(41, 26, 150)" r="3" /><circle cx="487.2" cy="420.64" fill="rgb(41, 26, 150)" r="3" /><circle cx="487.2" cy="420.64" fill="rgb(41, 26, 150)" r="3" /><circle cx="510.4000000000000000000000000" cy="420.64" fill="rgb(42, 26, 150)" r="3" /><circle cx="510.4000000000000000000000000" cy="420.64" fill="rgb(42, 26, 150)" r="3" /><circle cx="510.4000000000000000000000000" cy="420.64" fill="rgb(42, 26, 150)" r="3" /><circle cx="510.4000000000000000000000000" cy="420.64" fill="rgb(42, 26, 150)" r="3" /><circle cx="510.4000000000000000000000000" cy="430.2" fill="rgb(42, 25, 150)" r="3" /><circle cx="510.4000000000000000000000000" cy="430.2" fill="rgb(42, 25, 150)" r="3" /><circle cx="510.4000000000000000000000000" cy="430.2" fill="rgb(42, 25, 150)" r="3" /><circle cx="510.4000000000000000000000000" cy="430.2" fill="rgb(42, 25, 150)" r="3" /><circle cx="510.4000000000000000000000000" cy="430.2" fill="rgb(42, 25, 150)" r="3" /><circle cx="510.4000000000000000000000000" cy="430.2" fill="rgb(42, 25, 150)" r="3" /><circle cx="510.4000000000000000000000000" cy="430.2" fill="rgb(42, 25, 150)" r="3" /><circle cx="510.4000000000000000000000000" cy="430.2" fill="rgb(42, 25, 150)" r="3" /><circle cx="510.4000000000000000000000000" cy="430.2" fill="rgb(42, 25, 150)" r="3" /><circle cx="510.4000000000000000000000000" cy="430.2" fill="rgb(42, 25, 150)" r="3" /><circle cx="510.4000000000000000000000000" cy="430.2" fill="rgb(42, 25, 150)" r="3" /><circle cx="510.4000000000000000000000000" cy="430.2" fill="rgb(42, 25, 150)" r="3" /><circle cx="510.4000000000000000000000000" cy="420.64" fill="rgb(42, 26, 150)" r="3" /><circle cx="510.4000000000000000000000000" cy="430.2" fill="rgb(42, 25, 150)" r="3" /><circle cx="510.4000000000000000000000000" cy="430.2" fill="rgb(42, 25, 150)" r="3" /><circle cx="510.4000000000000000000000000" cy="430.2" fill="rgb(42, 25, 150)" r="3" /><circle cx="510.4000000000000000000000000" cy="430.2" fill="rgb(42, 25, 150)" r="3" /><circle cx="510.4000000000000000000000000" cy="430.2" fill="rgb(42, 25, 150)" r="3" /><circle cx="510.4000000000000000000000000" cy="420.64" fill="rgb(42, 26, 150)" r="3" /><circle cx="510.4000000000000000000000000" cy="430.2" fill="rgb(42, 25, 150)" r="3" /><circle cx="510.4000000000000000000000000" cy="430.2" fill="rgb(42, 25, 150)" r="3" /><circle cx="510.4000000000000000000000000" cy="430.2" fill="rgb(42, 25, 150)" r="3" /><circle cx="510.4000000000000000000000000" cy="430.2" fill="rgb(42, 25, 150)" r="3" /><circle cx="510.4000000000000000000000000" cy="430.2" fill="rgb(42, 25, 150)" r="3" /><circle cx="510.4000000000000000000000000" cy="430.2" fill="rgb(42, 25, 150)" r="3" /><circle cx="510.4000000000000000000000000" cy="439.76" fill="rgb(42, 24, 150)" r="3" /><circle cx="510.4000000000000000000000000" cy="430.2" fill="rgb(42, 25, 150)" r="3" /><circle cx="510.4000000000000000000000000" cy="430.2" fill="rgb(42, 25, 150)" r="3" /><circle cx="510.4000000000000000000000000" cy="439.76" fill="rgb(42, 24, 150)" r="3" /><circle cx="510.4000000000000000000000000" cy="430.2" fill="rgb(42, 25, 150)" r="3" /><circle cx="510.4000000000000000000000000" cy="430.2" fill="rgb(42, 25, 150)" r="3" /><circle cx="533.6000000000000000000000000" cy="430.2" fill="rgb(43, 25, 150)" r="3" /><circle cx="533.6000000000000000000000000" cy="430.2" fill="rgb(43, 25, 150)" r="3" /><circle cx="510.4000000000000000000000000" cy="439.76" fill="rgb(42, 24, 150)" r="3" /><circle cx="510.4000000000000000000000000" cy="430.2" fill="rgb(42, 25, 150)" r="3" /><circle cx="510.4000000000000000000000000" cy="430.2" fill="rgb(42, 25, 150)" r="3" /><circle cx="510.4000000000000000000000000" cy="430.2" fill="rgb(42, 25, 150)" r="3" /><circle cx="510.4000000000000000000000000" cy="430.2" fill="rgb(42, 25, 150)" r="3" /><circle cx="510.4000000000000000000000000" cy="430.2" fill="rgb(42, 25, 150)" r="3" /><circle cx="510.4000000000000000000000000" cy="430.2" fill="rgb(42, 25, 150)" r="3" /><circle cx="510.4000000000000000000000000" cy="430.2" fill="rgb(42, 25, 150)" r="3" /><circle cx="510.4000000000000000000000000" cy="430.2" fill="rgb(42, 25, 150)" r="3" /><circle cx="510.4000000000000000000000000" cy="430.2" fill="rgb(42, 25, 150)" r="3" /><circle cx="510.4000000000000000000000000" cy="430.2" fill="rgb(42, 25, 150)" r="3" /><circle cx="510.4000000000000000000000000" cy="430.2" fill="rgb(42, 25, 150)" r="3" /><circle cx="510.4000000000000000000000000" cy="430.2" fill="rgb(42, 25, 150)" r="3" /><circle cx="510.4000000000000000000000000" cy="411.08" fill="rgb(42, 27, 150)" r="3" /><circle cx="92.79999999999999999999999998" cy="76.48" fill="rgb(24, 62, 150)" r="3" /><circle cx="116.0000000000000000000000000" cy="105.16" fill="rgb(25, 59, 150)" r="3" /><circle cx="139.2" cy="114.72" fill="rgb(26, 58, 150)" r="3" /><circle cx="162.4000000000000000000000000" cy="133.84" fill="rgb(27, 56, 150)" r="3" /><circle cx="185.6000000000000000000000000" cy="152.96" fill="rgb(28, 54, 150)" r="3" /><circle cx="208.8" cy="162.52" fill="rgb(29, 53, 150)" r="3" /><circle cx="232.0000000000000000000000000" cy="172.08" fill="rgb(30, 52, 150)" r="3" /><circle cx="255.2000000000000000000000000" cy="191.2" fill="rgb(31, 50, 150)" r="3" /><circle cx="278.4" cy="200.76" fill="rgb(32, 49, 150)" r="3" /><circle cx="278.4" cy="219.88" fill="rgb(32, 47, 150)" r="3" /><circle cx="301.6000000000000000000000000" cy="239.0" fill="rgb(33, 45, 150)" r="3" /><circle cx="324.8000000000000000000000000" cy="239.0" fill="rgb(34, 45, 150)" r="3" /><circle cx="324.8000000000000000000000000" cy="248.56" fill="rgb(34, 44, 150)" r="3" /><circle cx="348.0" cy="258.12" fill="rgb(35, 43, 150)" r="3" /><circle cx="348.0" cy="267.68" fill="rgb(35, 42, 150)" r="3" /><circle cx="371.2000000000000000000000000" cy="277.24" fill="rgb(36, 41, 150)" r="3" /><circle cx="371.2000000000000000000000000" cy="286.8" fill="rgb(36, 40, 150)" r="3" /><circle cx="394.4000000000000000000000000" cy="296.36" fill="rgb(37, 39, 150)" r="3" /><circle cx="394.4000000000000000000000000" cy="296.36" fill="rgb(37, 39, 150)" r="3" /><circle cx="394.4000000000000000000000000" cy="305.92" fill="rgb(37, 38, 150)" r="3" /><circle cx="417.6" cy="305.92" fill="rgb(38, 38, 150)" r="3" /><circle cx="417.6" cy="315.48" fill="rgb(38, 37, 150)" r="3" /><circle cx="417.6" cy="315.48" fill="rgb(38, 37, 150)" r="3" /><circle cx="417.6" cy="325.04" fill="rgb(38, 36, 150)" r="3" /><circle cx="440.8000000000000000000000000" cy="315.48" fill="rgb(39, 37, 150)" r="3" /><circle cx="440.8000000000000000000000000" cy="334.6" fill="rgb(39, 35, 150)" r="3" /><circle cx="440.8000000000000000000000000" cy="334.6" fill="rgb(39, 35, 150)" r="3" /><circle cx="440.8000000000000000000000000" cy="334.6" fill="rgb(39, 35, 150)" r="3" /><circle cx="440.8000000000000000000000000" cy="344.16" fill="rgb(39, 34, 150)" r="3" /><circle cx="464.0000000000000000000000000" cy="344.16" fill="rgb(40, 34, 150)" r="3" /><circle cx="464.0000000000000000000000000" cy="344.16" fill="rgb(40, 34, 150)" r="3" /><circle cx="464.0000000000000000000000000" cy="372.84" fill="rgb(40, 31, 150)" r="3" /><circle cx="464.0000000000000000000000000" cy="344.16" fill="rgb(40, 34, 150)" r="3" /><circle cx="464.0000000000000000000000000" cy="353.72" fill="rgb(40, 33, 150)" r="3" /><circle cx="464.0000000000000000000000000" cy="353.72" fill="rgb(40, 33, 150)" r="3" /><circle cx="464.0000000000000000000000000" cy="353.72" fill="rgb(40, 33, 150)" r="3" /><circle cx="487.2" cy="363.28" fill="rgb(41, 32, 150)" r="3" /><circle cx="487.2" cy="363.28" fill="rgb(41, 32, 150)" r="3" /><circle cx="487.2" cy="363.28" fill="rgb(41, 32, 150)" r="3" /><circle cx="487.2" cy="372.84" fill="rgb(41, 31, 150)" r="3" /><circle cx="487.2" cy="372.84" fill="rgb(41, 31, 150)" r="3" /><circle cx="487.2" cy="372.84" fill="rgb(41, 31, 150)" r="3" /><circle cx="487.2" cy="372.84" fill="rgb(41, 31, 150)" r="3" /><circle cx="487.2" cy="363.28" fill="rgb(41, 32, 150)" r="3" /><circle cx="487.2" cy="372.84" fill="rgb(41, 31, 150)" r="3" /><circle cx="487.2" cy="372.84" fill="rgb(41, 31, 150)" r="3" /><circle cx="487.2" cy="382.4" fill="rgb(41, 30, 150)" r="3" /><circle cx="487.2" cy="372.84" fill="rgb(41, 31, 150)" r="3" /><circle cx="487.2" cy="382.4" fill="rgb(41, 30, 150)" r="3" /><circle cx="487.2" cy="382.4" fill="rgb(41, 30, 150)" r="3" /><circle cx="487.2" cy="391.96" fill="rgb(41, 29, 150)" r="3" /><circle cx="510.4000000000000000000000000" cy="382.4" fill="rgb(42, 30, 150)" r="3" /><circle cx="510.4000000000000000000000000" cy="382.4" fill="rgb(42, 30, 150)" r="3" /><circle cx="510.4000000000000000000000000" cy="382.4" fill="rgb(42, 30, 150)" r="3" /><circle cx="510.4000000000000000000000000" cy="382.4" fill="rgb(42, 30, 150)" r="3" /><circle cx="510.4000000000000000000000000" cy="382.4" fill="rgb(42, 30, 150)" r="3" /><circle cx="510.4000000000000000000000000" cy="382.4" fill="rgb(42, 30, 150)" r="3" /><circle cx="510.4000000000000000000000000" cy="391.96" fill="rgb(42, 29, 150)" r="3" /><circle cx="510.4000000000000000000000000" cy="391.96" fill="rgb(42, 29, 150)" r="3" /><circle cx="510.4000000000000000000000000" cy="401.52" fill="rgb(42, 28, 150)" r="3" /><circle cx="510.4000000000000000000000000" cy="401.52" fill="rgb(42, 28, 150)" r="3" /><circle cx="510.4000000000000000000000000" cy="391.96" fill="rgb(42, 29, 150)" r="3" /><circle cx="510.4000000000000000000000000" cy="391.96" fill="rgb(42, 29, 150)" r="3" /><circle cx="510.4000000000000000000000000" cy="391.96" fill="rgb(42, 29, 150)" r="3" /><circle cx="510.4000000000000000000000000" cy="391.96" fill="rgb(42, 29, 150)" r="3" /><circle cx="510.4000000000000000000000000" cy="391.96" fill="rgb(42, 29, 150)" r="3" /><circle cx="510.4000000000000000000000000" cy="391.96" fill="rgb(42, 29, 150)" r="3" /><circle cx="510.4000000000000000000000000" cy="391.96" fill="rgb(42, 29, 150)" r="3" /><circle cx="510.4000000000000000000000000" cy="391.96" fill="rgb(42, 29, 150)" r="3" /><circle cx="510.4000000000000000000000000" cy="391.96" fill="rgb(42, 29, 150)" r="3" /><circle cx="510.4000000000000000000000000" cy="391.96" fill="rgb(42, 29, 150)" r="3" /><circle cx="510.4000000000000000000000000" cy="401.52" fill="rgb(42, 28, 150)" r="3" /><circle cx="510.4000000000000000000000000" cy="391.96" fill="rgb(42, 29, 150)" r="3" /><circle cx="510.4000000000000000000000000" cy="401.52" fill="rgb(42, 28, 150)" r="3" /><circle cx="510.4000000000000000000000000" cy="401.52" fill="rgb(42, 28, 150)" r="3" /><circle cx="510.4000000000000000000000000" cy="401.52" fill="rgb(42, 28, 150)" r="3" /><circle cx="510.4000000000000000000000000" cy="401.52" fill="rgb(42, 28, 150)" r="3" /><circle cx="510.4000000000000000000000000" cy="401.52" fill="rgb(42, 28, 150)" r="3" /><circle cx="510.4000000000000000000000000" cy="401.52" fill="rgb(42, 28, 150)" r="3" /><circle cx="510.4000000000000000000000000" cy="401.52" fill="rgb(42, 28, 150)" r="3" /><circle cx="510.4000000000000000000000000" cy="401.52" fill="rgb(42, 28, 150)" r="3" /><circle cx="510.4000000000000000000000000" cy="401.52" fill="rgb(42, 28, 150)" r="3" /><circle cx="510.4000000000000000000000000" cy="411.08" fill="rgb(42, 27, 150)" r="3" /><circle cx="510.4000000000000000000000000" cy="401.52" fill="rgb(42, 28, 150)" r="3" /><circle cx="510.4000000000000000000000000" cy="401.52" fill="rgb(42, 28, 150)" r="3" /><circle cx="510.4000000000000000000000000" cy="401.52" fill="rgb(42, 28, 150)" r="3" /><circle cx="510.4000000000000000000000000" cy="401.52" fill="rgb(42, 28, 150)" r="3" /><circle cx="510.4000000000000000000000000" cy="401.52" fill="rgb(42, 28, 150)" r="3" /><circle cx="510.4000000000000000000000000" cy="401.52" fill="rgb(42, 28, 150)" r="3" /><circle cx="510.4000000000000000000000000" cy="401.52" fill="rgb(42, 28, 150)" r="3" /><circle cx="510.4000000000000000000000000" cy="401.52" fill="rgb(42, 28, 150)" r="3" /><circle cx="510.4000000000000000000000000" cy="401.52" fill="rgb(42, 28, 150)" r="3" /><circle cx="510.4000000000000000000000000" cy="401.52" fill="rgb(42, 28, 150)" r="3" /><circle cx="510.4000000000000000000000000" cy="401.52" fill="rgb(42, 28, 150)" r="3" /><circle cx="510.4000000000000000000000000" cy="401.52" fill="rgb(42, 28, 150)" r="3" /><circle cx="510.4000000000000000000000000" cy="401.52" fill="rgb(42, 28, 150)" r="3" /><circle cx="510.4000000000000000000000000" cy="411.08" fill="rgb(42, 27, 150)" r="3" /><circle cx="510.4000000000000000000000000" cy="401.52" fill="rgb(42, 28, 150)" r="3" /><circle cx="510.4000000000000000000000000" cy="411.08" fill="rgb(42, 27, 150)" r="3" /><circle cx="510.4000000000000000000000000" cy="401.52" fill="rgb(42, 28, 150)" r="3" /><circle cx="510.4000000000000000000000000" cy="401.52" fill="rgb(42, 28, 150)" r="3" /><circle cx="510.4000000000000000000000000" cy="411.08" fill="rgb(42, 27, 150)" r="3" /><circle cx="510.4000000000000000000000000" cy="420.64" fill="rgb(42, 26, 150)" r="3" /><circle cx="510.4000000000000000000000000" cy="411.08" fill="rgb(42, 27, 150)" r="3" /><circle cx="510.4000000000000000000000000" cy="401.52" fill="rgb(42, 28, 150)" r="3" /><circle cx="510.4000000000000000000000000" cy="401.52" fill="rgb(42, 28, 150)" r="3" /><circle cx="510.4000000000000000000000000" cy="401.52" fill="rgb(42, 28, 150)" r="3" /><circle cx="533.6000000000000000000000000" cy="430.2" fill="rgb(43, 25, 150)" r="3" /><circle cx="533.6000000000000000000000000" cy="401.52" fill="rgb(43, 28, 150)" r="3" /><circle cx="510.4000000000000000000000000" cy="401.52" fill="rgb(42, 28, 150)" r="3" /><circle cx="510.4000000000000000000000000" cy="411.08" fill="rgb(42, 27, 150)" r="3" /><circle cx="533.6000000000000000000000000" cy="401.52" fill="rgb(43, 28, 150)" r="3" /><circle cx="510.4000000000000000000000000" cy="391.96" fill="rgb(42, 29, 150)" r="3" /><circle cx="533.6000000000000000000000000" cy="401.52" fill="rgb(43, 28, 150)" r="3" /><circle cx="533.6000000000000000000000000" cy="411.08" fill="rgb(43, 27, 150)" r="3" /><circle cx="533.6000000000000000000000000" cy="401.52" fill="rgb(43, 28, 150)" r="3" /><circle cx="533.6000000000000000000000000" cy="411.08" fill="rgb(43, 27, 150)" r="3" /><circle cx="533.6000000000000000000000000" cy="411.08" fill="rgb(43, 27, 150)" r="3" /><circle cx="533.6000000000000000000000000" cy="411.08" fill="rgb(43, 27, 150)" r="3" /><circle cx="533.6000000000000000000000000" cy="411.08" fill="rgb(43, 27, 150)" r="3" /><circle cx="533.6000000000000000000000000" cy="420.64" fill="rgb(43, 26, 150)" r="3" /><circle cx="533.6000000000000000000000000" cy="411.08" fill="rgb(43, 27, 150)" r="3" /><circle cx="533.6000000000000000000000000" cy="411.08" fill="rgb(43, 27, 150)" r="3" /><circle cx="533.6000000000000000000000000" cy="411.08" fill="rgb(43, 27, 150)" r="3" /><circle cx="533.6000000000000000000000000" cy="401.52" fill="rgb(43, 28, 150)" r="3" /><circle cx="533.6000000000000000000000000" cy="411.08" fill="rgb(43, 27, 150)" r="3" /><circle cx="533.6000000000000000000000000" cy="411.08" fill="rgb(43, 27, 150)" r="3" /><circle cx="533.6000000000000000000000000" cy="411.08" fill="rgb(43, 27, 150)" r="3" /><circle cx="533.6000000000000000000000000" cy="411.08" fill="rgb(43, 27, 150)" r="3" /><circle cx="533.6000000000000000000000000" cy="411.08" fill="rgb(43, 27, 150)" r="3" /><circle cx="533.6000000000000000000000000" cy="401.52" fill="rgb(43, 28, 150)" r="3" /><circle cx="533.6000000000000000000000000" cy="411.08" fill="rgb(43, 27, 150)" r="3" /><circle cx="533.6000000000000000000000000" cy="401.52" fill="rgb(43, 28, 150)" r="3" /><circle cx="533.6000000000000000000000000" cy="411.08" fill="rgb(43, 27, 150)" r="3" /><circle cx="533.6000000000000000000000000" cy="411.08" fill="rgb(43, 27, 150)" r="3" /><circle cx="533.6000000000000000000000000" cy="391.96" fill="rgb(43, 29, 150)" r="3" /><circle cx="533.6000000000000000000000000" cy="411.08" fill="rgb(43, 27, 150)" r="3" /><circle cx="533.6000000000000000000000000" cy="401.52" fill="rgb(43, 28, 150)" r="3" /><circle cx="533.6000000000000000000000000" cy="411.08" fill="rgb(43, 27, 150)" r="3" /><circle cx="533.6000000000000000000000000" cy="401.52" fill="rgb(43, 28, 150)" r="3" /><circle cx="533.6000000000000000000000000" cy="401.52" fill="rgb(43, 28, 150)" r="3" /><circle cx="533.6000000000000000000000000" cy="401.52" fill="rgb(43, 28, 150)" r="3" /><circle cx="533.6000000000000000000000000" cy="411.08" fill="rgb(43, 27, 150)" r="3" /><circle cx="533.6000000000000000000000000" cy="411.08" fill="rgb(43, 27, 150)" r="3" /><circle cx="533.6000000000000000000000000" cy="411.08" fill="rgb(43, 27, 150)" r="3" /><circle cx="533.6000000000000000000000000" cy="411.08" fill="rgb(43, 27, 150)" r="3" /><circle cx="394.4000000000000000000000000" cy="391.96" fill="rgb(37, 29, 150)" r="3" /><circle cx="394.4000000000000000000000000" cy="382.4" fill="rgb(37, 30, 150)" r="3" /><circle cx="417.6" cy="372.84" fill="rgb(38, 31, 150)" r="3" /><circle cx="417.6" cy="363.28" fill="rgb(38, 32, 150)" r="3" /><circle cx="417.6" cy="372.84" fill="rgb(38, 31, 150)" r="3" /><circle cx="417.6" cy="363.28" fill="rgb(38, 32, 150)" r="3" /><circle cx="440.8000000000000000000000000" cy="363.28" fill="rgb(39, 32, 150)" r="3" /><circle cx="440.8000000000000000000000000" cy="372.84" fill="rgb(39, 31, 150)" r="3" /><circle cx="440.8000000000000000000000000" cy="372.84" fill="rgb(39, 31, 150)" r="3" /><circle cx="440.8000000000000000000000000" cy="372.84" fill="rgb(39, 31, 150)" r="3" /><circle cx="464.0000000000000000000000000" cy="372.84" fill="rgb(40, 31, 150)" r="3" /><circle cx="464.0000000000000000000000000" cy="372.84" fill="rgb(40, 31, 150)" r="3" /><circle cx="464.0000000000000000000000000" cy="382.4" fill="rgb(40, 30, 150)" r="3" /><circle cx="464.0000000000000000000000000" cy="382.4" fill="rgb(40, 30, 150)" r="3" /><circle cx="464.0000000000000000000000000" cy="382.4" fill="rgb(40, 30, 150)" r="3" /><circle cx="464.0000000000000000000000000" cy="382.4" fill="rgb(40, 30, 150)" r="3" /><circle cx="487.2" cy="391.96" fill="rgb(41, 29, 150)" r="3" /><circle cx="487.2" cy="391.96" fill="rgb(41, 29, 150)" r="3" /><circle cx="487.2" cy="391.96" fill="rgb(41, 29, 150)" r="3" /><circle cx="487.2" cy="391.96" fill="rgb(41, 29, 150)" r="3" /><circle cx="487.2" cy="391.96" fill="rgb(41, 29, 150)" r="3" /><circle cx="487.2" cy="391.96" fill="rgb(41, 29, 150)" r="3" /><circle cx="487.2" cy="401.52" fill="rgb(41, 28, 150)" r="3" /><circle cx="487.2" cy="391.96" fill="rgb(41, 29, 150)" r="3" /><circle cx="510.4000000000000000000000000" cy="391.96" fill="rgb(42, 29, 150)" r="3" /><circle cx="510.4000000000000000000000000" cy="401.52" fill="rgb(42, 28, 150)" r="3" /><circle cx="510.4000000000000000000000000" cy="391.96" fill="rgb(42, 29, 150)" r="3" /><circle cx="510.4000000000000000000000000" cy="401.52" fill="rgb(42, 28, 150)" r="3" /><circle cx="510.4000000000000000000000000" cy="391.96" fill="rgb(42, 29, 150)" r="3" /><circle cx="510.4000000000000000000000000" cy="401.52" fill="rgb(42, 28, 150)" r="3" /><circle cx="510.4000000000000000000000000" cy="401.52" fill="rgb(42, 28, 150)" r="3" /><circle cx="487.2" cy="411.08" fill="rgb(41, 27, 150)" r="3" /><circle cx="487.2" cy="401.52" fill="rgb(41, 28, 150)" r="3" /><circle cx="487.2" cy="401.52" fill="rgb(41, 28, 150)" r="3" /><circle cx="464.0000000000000000000000000" cy="401.52" fill="rgb(40, 28, 150)" r="3" /><circle cx="464.0000000000000000000000000" cy="401.52" fill="rgb(40, 28, 150)" r="3" /><circle cx="464.0000000000000000000000000" cy="401.52" fill="rgb(40, 28, 150)" r="3" /><circle cx="464.0000000000000000000000000" cy="391.96" fill="rgb(40, 29, 150)" r="3" /><circle cx="464.0000000000000000000000000" cy="401.52" fill="rgb(40, 28, 150)" r="3" /><circle cx="464.0000000000000000000000000" cy="401.52" fill="rgb(40, 28, 150)" r="3" /><circle cx="464.0000000000000000000000000" cy="401.52" fill="rgb(40, 28, 150)" r="3" /><circle cx="464.0000000000000000000000000" cy="401.52" fill="rgb(40, 28, 150)" r="3" /><circle cx="464.0000000000000000000000000" cy="391.96" fill="rgb(40, 29, 150)" r="3" /><circle cx="255.2000000000000000000000000" cy="219.88" fill="rgb(31, 47, 150)" r="3" /><circle cx="278.4" cy="229.44" fill="rgb(32, 46, 150)" r="3" /><circle cx="301.6000000000000000000000000" cy="239.0" fill="rgb(33, 45, 150)" r="3" /><circle cx="301.6000000000000000000000000" cy="248.56" fill="rgb(33, 44, 150)" r="3" /><circle cx="324.8000000000000000000000000" cy="258.12" fill="rgb(34, 43, 150)" r="3" /><circle cx="348.0" cy="267.68" fill="rgb(35, 42, 150)" r="3" /><circle cx="348.0" cy="267.68" fill="rgb(35, 42, 150)" r="3" /><circle cx="371.2000000000000000000000000" cy="277.24" fill="rgb(36, 41, 150)" r="3" /><circle cx="371.2000000000000000000000000" cy="286.8" fill="rgb(36, 40, 150)" r="3" /><circle cx="394.4000000000000000000000000" cy="296.36" fill="rgb(37, 39, 150)" r="3" /><circle cx="394.4000000000000000000000000" cy="296.36" fill="rgb(37, 39, 150)" r="3" /><circle cx="394.4000000000000000000000000" cy="305.92" fill="rgb(37, 38, 150)" r="3" /><circle cx="417.6" cy="315.48" fill="rgb(38, 37, 150)" r="3" /><circle cx="417.6" cy="315.48" fill="rgb(38, 37, 150)" r="3" /><circle cx="440.8000000000000000000000000" cy="315.48" fill="rgb(39, 37, 150)" r="3" /><circle cx="440.8000000000000000000000000" cy="325.04" fill="rgb(39, 36, 150)" r="3" /><circle cx="440.8000000000000000000000000" cy="325.04" fill="rgb(39, 36, 150)" r="3" /><circle cx="440.8000000000000000000000000" cy="334.6" fill="rgb(39, 35, 150)" r="3" /><circle cx="464.0000000000000000000000000" cy="334.6" fill="rgb(40, 35, 150)" r="3" /><circle cx="464.0000000000000000000000000" cy="334.6" fill="rgb(40, 35, 150)" r="3" /><circle cx="464.0000000000000000000000000" cy="334.6" fill="rgb(40, 35, 150)" r="3" /><circle cx="464.0000000000000000000000000" cy="344.16" fill="rgb(40, 34, 150)" r="3" /><circle cx="464.0000000000000000000000000" cy="344.16" fill="rgb(40, 34, 150)" r="3" /><circle cx="464.0000000000000000000000000" cy="344.16" fill="rgb(40, 34, 150)" r="3" /><circle cx="487.2" cy="353.72" fill="rgb(41, 33, 150)" r="3" /><circle cx="487.2" cy="344.16" fill="rgb(41, 34, 150)" r="3" /><circle cx="487.2" cy="353.72" fill="rgb(41, 33, 150)" r="3" /><circle cx="487.2" cy="353.72" fill="rgb(41, 33, 150)" r="3" /><circle cx="487.2" cy="353.72" fill="rgb(41, 33, 150)" r="3" /><circle cx="487.2" cy="353.72" fill="rgb(41, 33, 150)" r="3" /><circle cx="487.2" cy="363.28" fill="rgb(41, 32, 150)" r="3" /><circle cx="487.2" cy="363.28" fill="rgb(41, 32, 150)" r="3" /><circle cx="510.4000000000000000000000000" cy="334.6" fill="rgb(42, 35, 150)" r="3" /><circle cx="510.4000000000000000000000000" cy="363.28" fill="rgb(42, 32, 150)" r="3" /><circle cx="510.4000000000000000000000000" cy="363.28" fill="rgb(42, 32, 150)" r="3" /><circle cx="510.4000000000000000000000000" cy="363.28" fill="rgb(42, 32, 150)" r="3" /><circle cx="510.4000000000000000000000000" cy="363.28" fill="rgb(42, 32, 150)" r="3" /><circle cx="510.4000000000000000000000000" cy="372.84" fill="rgb(42, 31, 150)" r="3" /><circle cx="510.4000000000000000000000000" cy="372.84" fill="rgb(42, 31, 150)" r="3" /><circle cx="510.4000000000000000000000000" cy="372.84" fill="rgb(42, 31, 150)" r="3" /><circle cx="510.4000000000000000000000000" cy="372.84" fill="rgb(42, 31, 150)" r="3" /><circle cx="510.4000000000000000000000000" cy="372.84" fill="rgb(42, 31, 150)" r="3" /><circle cx="510.4000000000000000000000000" cy="372.84" fill="rgb(42, 31, 150)" r="3" /><circle cx="510.4000000000000000000000000" cy="372.84" fill="rgb(42, 31, 150)" r="3" /><circle cx="510.4000000000000000000000000" cy="372.84" fill="rgb(42, 31, 150)" r="3" /><circle cx="533.6000000000000000000000000" cy="372.84" fill="rgb(43, 31, 150)" r="3" /><circle cx="533.6000000000000000000000000" cy="382.4" fill="rgb(43, 30, 150)" r="3" /><circle cx="533.6000000000000000000000000" cy="372.84" fill="rgb(43, 31, 150)" r="3" /><circle cx="533.6000000000000000000000000" cy="382.4" fill="rgb(43, 30, 150)" r="3" /><circle cx="533.6000000000000000000000000" cy="382.4" fill="rgb(43, 30, 150)" r="3" /><circle cx="533.6000000000000000000000000" cy="382.4" fill="rgb(43, 30, 150)" r="3" /><circle cx="533.6000000000000000000000000" cy="382.4" fill="rgb(43, 30, 150)" r="3" /><circle cx="533.6000000000000000000000000" cy="372.84" fill="rgb(43, 31, 150)" r="3" /><circle cx="533.6000000000000000000000000" cy="382.4" fill="rgb(43, 30, 150)" r="3" /><circle cx="533.6000000000000000000000000" cy="382.4" fill="rgb(43, 30, 150)" r="3" /><circle cx="533.6000000000000000000000000" cy="372.84" fill="rgb(43, 31, 150)" r="3" /><circle cx="533.6000000000000000000000000" cy="382.4" fill="rgb(43, 30, 150)" r="3" /><circle cx="533.6000000000000000000000000" cy="382.4" fill="rgb(43, 30, 150)" r="3" /><circle cx="533.6000000000000000000000000" cy="382.4" fill="rgb(43, 30, 150)" r="3" /><circle cx="533.6000000000000000000000000" cy="382.4" fill="rgb(43, 30, 150)" r="3" /><circle cx="533.6000000000000000000000000" cy="382.4" fill="rgb(43, 30, 150)" r="3" /><circle cx="533.6000000000000000000000000" cy="382.4" fill="rgb(43, 30, 150)" r="3" /><circle cx="533.6000000000000000000000000" cy="382.4" fill="rgb(43, 30, 150)" r="3" /><circle cx="533.6000000000000000000000000" cy="382.4" fill="rgb(43, 30, 150)" r="3" /><circle cx="533.6000000000000000000000000" cy="382.4" fill="rgb(43, 30, 150)" r="3" /><circle cx="533.6000000000000000000000000" cy="382.4" fill="rgb(43, 30, 150)" r="3" /><circle cx="533.6000000000000000000000000" cy="391.96" fill="rgb(43, 29, 150)" r="3" /><circle cx="533.6000000000000000000000000" cy="382.4" fill="rgb(43, 30, 150)" r="3" /><circle cx="533.6000000000000000000000000" cy="382.4" fill="rgb(43, 30, 150)" r="3" /><circle cx="533.6000000000000000000000000" cy="382.4" fill="rgb(43, 30, 150)" r="3" /><circle cx="533.6000000000000000000000000" cy="382.4" fill="rgb(43, 30, 150)" r="3" /><circle cx="533.6000000000000000000000000" cy="382.4" fill="rgb(43, 30, 150)" r="3" /><circle cx="533.6000000000000000000000000" cy="382.4" fill="rgb(43, 30, 150)" r="3" /><circle cx="533.6000000000000000000000000" cy="382.4" fill="rgb(43, 30, 150)" r="3" /><circle cx="533.6000000000000000000000000" cy="382.4" fill="rgb(43, 30, 150)" r="3" /><circle cx="533.6000000000000000000000000" cy="382.4" fill="rgb(43, 30, 150)" r="3" /><circle cx="533.6000000000000000000000000" cy="391.96" fill="rgb(43, 29, 150)" r="3" /><circle cx="533.6000000000000000000000000" cy="391.96" fill="rgb(43, 29, 150)" r="3" /><circle cx="533.6000000000000000000000000" cy="382.4" fill="rgb(43, 30, 150)" r="3" /><circle cx="533.6000000000000000000000000" cy="382.4" fill="rgb(43, 30, 150)" r="3" /><circle cx="533.6000000000000000000000000" cy="382.4" fill="rgb(43, 30, 150)" r="3" /><circle cx="533.6000000000000000000000000" cy="391.96" fill="rgb(43, 29, 150)" r="3" /><circle cx="533.6000000000000000000000000" cy="391.96" fill="rgb(43, 29, 150)" r="3" /><circle cx="533.6000000000000000000000000" cy="391.96" fill="rgb(43, 29, 150)" r="3" /><circle cx="533.6000000000000000000000000" cy="391.96" fill="rgb(43, 29, 150)" r="3" /><circle cx="533.6000000000000000000000000" cy="391.96" fill="rgb(43, 29, 150)" r="3" /><circle cx="533.6000000000000000000000000" cy="391.96" fill="rgb(43, 29, 150)" r="3" /><circle cx="533.6000000000000000000000000" cy="391.96" fill="rgb(43, 29, 150)" r="3" /><circle cx="533.6000000000000000000000000" cy="391.96" fill="rgb(43, 29, 150)" r="3" /><circle cx="533.6000000000000000000000000" cy="391.96" fill="rgb(43, 29, 150)" r="3" /><circle cx="533.6000000000000000000000000" cy="401.52" fill="rgb(43, 28, 150)" r="3" /><circle cx="533.6000000000000000000000000" cy="391.96" fill="rgb(43, 29, 150)" r="3" /><circle cx="533.6000000000000000000000000" cy="401.52" fill="rgb(43, 28, 150)" r="3" /><circle cx="533.6000000000000000000000000" cy="391.96" fill="rgb(43, 29, 150)" r="3" /><circle cx="556.8" cy="391.96" fill="rgb(44, 29, 150)" r="3" /><circle cx="556.8" cy="391.96" fill="rgb(44, 29, 150)" r="3" /><circle cx="556.8" cy="391.96" fill="rgb(44, 29, 150)" r="3" /><circle cx="556.8" cy="391.96" fill="rgb(44, 29, 150)" r="3" /><circle cx="556.8" cy="391.96" fill="rgb(44, 29, 150)" r="3" /><circle cx="556.8" cy="391.96" fill="rgb(44, 29, 150)" r="3" /><circle cx="556.8" cy="391.96" fill="rgb(44, 29, 150)" r="3" /><circle cx="556.8" cy="391.96" fill="rgb(44, 29, 150)" r="3" /><circle cx="556.8" cy="391.96" fill="rgb(44, 29, 150)" r="3" /><circle cx="556.8" cy="391.96" fill="rgb(44, 29, 150)" r="3" /><circle cx="556.8" cy="391.96" fill="rgb(44, 29, 150)" r="3" /><circle cx="533.6000000000000000000000000" cy="391.96" fill="rgb(43, 29, 150)" r="3" /><circle cx="533.6000000000000000000000000" cy="391.96" fill="rgb(43, 29, 150)" r="3" /><circle cx="533.6000000000000000000000000" cy="391.96" fill="rgb(43, 29, 150)" r="3" /><circle cx="533.6000000000000000000000000" cy="401.52" fill="rgb(43, 28, 150)" r="3" /><circle cx="533.6000000000000000000000000" cy="401.52" fill="rgb(43, 28, 150)" r="3" /><circle cx="533.6000000000000000000000000" cy="391.96" fill="rgb(43, 29, 150)" r="3" /><circle cx="556.8" cy="391.96" fill="rgb(44, 29, 150)" r="3" /><circle cx="533.6000000000000000000000000" cy="391.96" fill="rgb(43, 29, 150)" r="3" /><circle cx="556.8" cy="391.96" fill="rgb(44, 29, 150)" r="3" /><circle cx="533.6000000000000000000000000" cy="391.96" fill="rgb(43, 29, 150)" r="3" /><circle cx="556.8" cy="391.96" fill="rgb(44, 29, 150)" r="3" /><circle cx="556.8" cy="382.4" fill="rgb(44, 30, 150)" r="3" /><circle cx="556.8" cy="391.96" fill="rgb(44, 29, 150)" r="3" /><circle cx="556.8" cy="391.96" fill="rgb(44, 29, 150)" r="3" /><circle cx="556.8" cy="391.96" fill="rgb(44, 29, 150)" r="3" /><circle cx="556.8" cy="391.96" fill="rgb(44, 29, 150)" r="3" /><circle cx="556.8" cy="391.96" fill="rgb(44, 29, 150)" r="3" /><circle cx="556.8" cy="391.96" fill="rgb(44, 29, 150)" r="3" /><circle cx="556.8" cy="391.96" fill="rgb(44, 29, 150)" r="3" /><circle cx="533.6000000000000000000000000" cy="391.96" fill="rgb(43, 29, 150)" r="3" /><circle cx="556.8" cy="391.96" fill="rgb(44, 29, 150)" r="3" /><circle cx="556.8" cy="391.96" fill="rgb(44, 29, 150)" r="3" /><circle cx="556.8" cy="391.96" fill="rgb(44, 29, 150)" r="3" /><circle cx="556.8" cy="391.96" fill="rgb(44, 29, 150)" r="3" /><circle cx="556.8" cy="391.96" fill="rgb(44, 29, 150)" r="3" /><circle cx="556.8" cy="391.96" fill="rgb(44, 29, 150)" r="3" /><circle cx="556.8" cy="391.96" fill="rgb(44, 29, 150)" r="3" /><circle cx="533.6000000000000000000000000" cy="391.96" fill="rgb(43, 29, 150)" r="3" /><circle cx="556.8" cy="391.96" fill="rgb(44, 29, 150)" r="3" /><circle cx="533.6000000000000000000000000" cy="391.96" fill="rgb(43, 29, 150)" r="3" /><circle cx="556.8" cy="391.96" fill="rgb(44, 29, 150)" r="3" /><circle cx="556.8" cy="391.96" fill="rgb(44, 29, 150)" r="3" /><circle cx="556.8" cy="391.96" fill="rgb(44, 29, 150)" r="3" /><circle cx="556.8" cy="382.4" fill="rgb(44, 30, 150)" r="3" /><circle cx="556.8" cy="391.96" fill="rgb(44, 29, 150)" r="3" /><circle cx="533.6000000000000000000000000" cy="411.08" fill="rgb(43, 27, 150)" r="3" /><circle cx="556.8" cy="391.96" fill="rgb(44, 29, 150)" r="3" /><circle cx="556.8" cy="391.96" fill="rgb(44, 29, 150)" r="3" /><circle cx="556.8" cy="391.96" fill="rgb(44, 29, 150)" r="3" /><circle cx="556.8" cy="391.96" fill="rgb(44, 29, 150)" r="3" /><circle cx="556.8" cy="391.96" fill="rgb(44, 29, 150)" r="3" /><circle cx="556.8" cy="391.96" fill="rgb(44, 29, 150)" r="3" /><circle cx="556.8" cy="382.4" fill="rgb(44, 30, 150)" r="3" /><circle cx="556.8" cy="382.4" fill="rgb(44, 30, 150)" r="3" /><circle cx="556.8" cy="382.4" fill="rgb(44, 30, 150)" r="3" /><circle cx="556.8" cy="382.4" fill="rgb(44, 30, 150)" r="3" /><circle cx="556.8" cy="391.96" fill="rgb(44, 29, 150)" r="3" /><circle cx="556.8" cy="391.96" fill="rgb(44, 29, 150)" r="3" /><circle cx="556.8" cy="391.96" fill="rgb(44, 29, 150)" r="3" /><circle cx="556.8" cy="391.96" fill="rgb(44, 29, 150)" r="3" /><circle cx="556.8" cy="401.52" fill="rgb(44, 28, 150)" r="3" /><circle cx="556.8" cy="401.52" fill="rgb(44, 28, 150)" r="3" /><circle cx="556.8" cy="401.52" fill="rgb(44, 28, 150)" r="3" /><circle cx="556.8" cy="401.52" fill="rgb(44, 28, 150)" r="3" /><circle cx="556.8" cy="401.52" fill="rgb(44, 28, 150)" r="3" /><circle cx="556.8" cy="420.64" fill="rgb(44, 26, 150)" r="3" /><circle cx="556.8" cy="391.96" fill="rgb(44, 29, 150)" r="3" /><circle cx="556.8" cy="401.52" fill="rgb(44, 28, 150)" r="3" /><circle cx="580.0000000000000000000000000" cy="411.08" fill="rgb(45, 27, 150)" r="3" /><circle cx="580.0000000000000000000000000" cy="411.08" fill="rgb(45, 27, 150)" r="3" /><circle cx="580.0000000000000000000000000" cy="411.08" fill="rgb(45, 27, 150)" r="3" /><circle cx="580.0000000000000000000000000" cy="401.52" fill="rgb(45, 28, 150)" r="3" /><circle cx="580.0000000000000000000000000" cy="411.08" fill="rgb(45, 27, 150)" r="3" /><circle cx="580.0000000000000000000000000" cy="401.52" fill="rgb(45, 28, 150)" r="3" /><circle cx="580.0000000000000000000000000" cy="411.08" fill="rgb(45, 27, 150)" r="3" /><circle cx="580.0000000000000000000000000" cy="401.52" fill="rgb(45, 28, 150)" r="3" /><circle cx="580.0000000000000000000000000" cy="391.96" fill="rgb(45, 29, 150)" r="3" /><circle cx="580.0000000000000000000000000" cy="401.52" fill="rgb(45, 28, 150)" r="3" /><circle cx="580.0000000000000000000000000" cy="411.08" fill="rgb(45, 27, 150)" r="3" /><circle cx="580.0000000000000000000000000" cy="411.08" fill="rgb(45, 27, 150)" r="3" /><circle cx="580.0000000000000000000000000" cy="411.08" fill="rgb(45, 27, 150)" r="3" /><circle cx="580.0000000000000000000000000" cy="411.08" fill="rgb(45, 27, 150)" r="3" /><circle cx="580.0000000000000000000000000" cy="411.08" fill="rgb(45, 27, 150)" r="3" /><circle cx="580.0000000000000000000000000" cy="411.08" fill="rgb(45, 27, 150)" r="3" /><circle cx="580.0000000000000000000000000" cy="430.2" fill="rgb(45, 25, 150)" r="3" /><circle cx="580.0000000000000000000000000" cy="401.52" fill="rgb(45, 28, 150)" r="3" /><circle cx="580.0000000000000000000000000" cy="411.08" fill="rgb(45, 27, 150)" r="3" /><circle cx="533.6000000000000000000000000" cy="411.08" fill="rgb(43, 27, 150)" r="3" /><circle cx="510.4000000000000000000000000" cy="401.52" fill="rgb(42, 28, 150)" r="3" /><circle cx="510.4000000000000000000000000" cy="401.52" fill="rgb(42, 28, 150)" r="3" /><circle cx="510.4000000000000000000000000" cy="401.52" fill="rgb(42, 28, 150)" r="3" /><circle cx="510.4000000000000000000000000" cy="401.52" fill="rgb(42, 28, 150)" r="3" /><circle cx="510.4000000000000000000000000" cy="401.52" fill="rgb(42, 28, 150)" r="3" /><circle cx="533.6000000000000000000000000" cy="391.96" fill="rgb(43, 29, 150)" r="3" /><circle cx="533.6000000000000000000000000" cy="391.96" fill="rgb(43, 29, 150)" r="3" /><circle cx="533.6000000000000000000000000" cy="401.52" fill="rgb(43, 28, 150)" r="3" /><circle cx="533.6000000000000000000000000" cy="401.52" fill="rgb(43, 28, 150)" r="3" /><circle cx="533.6000000000000000000000000" cy="401.52" fill="rgb(43, 28, 150)" r="3" /><circle cx="533.6000000000000000000000000" cy="401.52" fill="rgb(43, 28, 150)" r="3" /><circle cx="533.6000000000000000000000000" cy="401.52" fill="rgb(43, 28, 150)" r="3" /><circle cx="533.6000000000000000000000000" cy="401.52" fill="rgb(43, 28, 150)" r="3" /><circle cx="533.6000000000000000000000000" cy="420.64" fill="rgb(43, 26, 150)" r="3" /><circle cx="533.6000000000000000000000000" cy="401.52" fill="rgb(43, 28, 150)" r="3" /><circle cx="533.6000000000000000000000000" cy="401.52" fill="rgb(43, 28, 150)" r="3" /><circle cx="533.6000000000000000000000000" cy="411.08" fill="rgb(43, 27, 150)" r="3" /><circle cx="533.6000000000000000000000000" cy="401.52" fill="rgb(43, 28, 150)" r="3" /><circle cx="556.8" cy="411.08" fill="rgb(44, 27, 150)" r="3" /><circle cx="556.8" cy="401.52" fill="rgb(44, 28, 150)" r="3" /><circle cx="556.8" cy="411.08" fill="rgb(44, 27, 150)" r="3" /><circle cx="556.8" cy="391.96" fill="rgb(44, 29, 150)" r="3" /><circle cx="556.8" cy="411.08" fill="rgb(44, 27, 150)" r="3" /><circle cx="556.8" cy="411.08" fill="rgb(44, 27, 150)" r="3" /><circle cx="556.8" cy="411.08" fill="rgb(44, 27, 150)" r="3" /><circle cx="556.8" cy="411.08" fill="rgb(44, 27, 150)" r="3" /><circle cx="556.8" cy="411.08" fill="rgb(44, 27, 150)" r="3" /><circle cx="556.8" cy="401.52" fill="rgb(44, 28, 150)" r="3" /></g></g></g></g></g></g></svg>